<svg xmlns="http://www.w3.org/2000/svg" width="96" height="96" viewBox="0 0 96 96">
  <g id="left" transform="translate(-528 -340)">
    <rect id="Rectangle_1" data-name="Rectangle 1" width="96" height="96" transform="translate(528 340)" fill="#fff"/>
    <g id="Group_13" data-name="Group 13" transform="translate(8 -3)" opacity="0.8">
      <rect id="Rectangle_27" data-name="Rectangle 27" width="48" height="3" rx="1.5" transform="translate(555 354)" fill="#b7b8be"/>
      <rect id="Rectangle_28" data-name="Rectangle 28" width="10" height="2" rx="1" transform="translate(555 360)" fill="#b7b8be"/>
      <rect id="Rectangle_28-2" data-name="Rectangle 28" width="10" height="2" rx="1" transform="translate(569 360)" fill="#b7b8be"/>
      <rect id="Rectangle_28-3" data-name="Rectangle 28" width="10" height="2" rx="1" transform="translate(583 360)" fill="#b7b8be"/>
    </g>
    <path id="Path_8" data-name="Path 8" d="M0,0H48V27H0Z" transform="translate(563 367)" fill="#c2c3c9" opacity="0.8"/>
    <g id="Group_14" data-name="Group 14" opacity="0.8">
      <rect id="Rectangle_31" data-name="Rectangle 31" width="48" height="2" rx="1" transform="translate(563 402)" fill="#b7b8be"/>
      <rect id="Rectangle_32" data-name="Rectangle 32" width="45" height="2" rx="1" transform="translate(563 407)" fill="#b7b8be"/>
      <rect id="Rectangle_33" data-name="Rectangle 33" width="48" height="2" rx="1" transform="translate(563 412)" fill="#b7b8be"/>
      <rect id="Rectangle_34" data-name="Rectangle 34" width="45" height="2" rx="1" transform="translate(563 417)" fill="#b7b8be"/>
      <rect id="Rectangle_35" data-name="Rectangle 35" width="32" height="2" rx="1" transform="translate(563 422)" fill="#b7b8be"/>
    </g>
    <rect id="Rectangle_2" data-name="Rectangle 2" width="18" height="73" transform="translate(539 351)" fill="#c2c3c9"/>
  </g>
</svg>
